<svg xmlns="http://www.w3.org/2000/svg" viewBox="0 0 19 11.08"><title>icon-social-vk</title><g id="Слой_2" data-name="Слой 2"><g id="icons"><path d="M9.75,11.08a7,7,0,0,1-3.54-.88A8.67,8.67,0,0,1,3.53,7.7,32.11,32.11,0,0,1,.13,1.63a.92.92,0,0,1,0-.9A.92.92,0,0,1,.93.36c.83,0,1.69,0,2.61,0a1.14,1.14,0,0,1,1.07.78A15.64,15.64,0,0,0,6.33,4.33,2.48,2.48,0,0,0,6.9,5L7,5l0-.08a1.88,1.88,0,0,0,.12-.57A9.72,9.72,0,0,0,7.11,2a.63.63,0,0,0-.55-.6.58.58,0,0,1-.47-.34A.58.58,0,0,1,6.25.54,1.34,1.34,0,0,1,7.36,0h3.08a1.08,1.08,0,0,1,.94,1.1.38.38,0,0,1,0,.05V4.5h0a.79.79,0,0,0,.17.48,1,1,0,0,0,.17-.16l0,0a10.06,10.06,0,0,0,1.63-2.51c.21-.42.39-.86.54-1.24a1,1,0,0,1,1-.7h2.89a1.85,1.85,0,0,1,.32,0,1,1,0,0,1,.73.41,1,1,0,0,1,0,.84,7.26,7.26,0,0,1-1.15,2l-.05.07-.7.93c-.26.34-.53.69-.78,1a.89.89,0,0,0-.23.5c0,.11.11.26.33.46h0l.48.46A16.25,16.25,0,0,1,18.15,8.5a5.62,5.62,0,0,1,.69,1,1.18,1.18,0,0,1,0,1.12.89.89,0,0,1-.72.46H15.46a2.43,2.43,0,0,1-2-.8c-.25-.26-.5-.53-.73-.8l-.34-.38a2.19,2.19,0,0,0-.4-.36.32.32,0,0,0-.21-.07.3.3,0,0,0-.14.15,2.43,2.43,0,0,0-.23,1.08c0,.81-.38,1.14-1.21,1.18Z" style="fill:#242f76"/></g></g></svg>